<?xml version="1.0" encoding="UTF-8"?><svg id="Layer_1" xmlns="http://www.w3.org/2000/svg" viewBox="0 0 340.16 127.56"><defs><style>.cls-1{fill:#063;}.cls-2{fill:#50b163;}</style></defs><path class="cls-2" d="m58.81,30.23c-.16,2.28-.7,4.51-1.64,6.63-2,4.55-5.61,8.19-10.13,10.23-2.1.96-4.33,1.52-6.61,1.72.7-9.85,8.57-17.78,18.38-18.58m-33.26,8.69c5.95-.18,10.79,4.23,11.59,9.87-5.53-.64-10.09-4.53-11.59-9.87m40.37-11.13l-1.2-.28-.28,3.02.78.18c9.05,2.18,15.38,10.23,15.38,19.57,0,11.09-9.03,20.11-20.13,20.11s-19.24-8.21-20.03-18.58c1.1-.08,2.2-.24,3.26-.48,1.56-.32,3.08-.82,4.57-1.48.38-.18.76-.36,1.12-.54l.04-.02c4.67-2.44,8.35-6.39,10.47-11.21l.06-.16.88-2.32c.28-.94.52-1.88.66-2.86.24-1.32.36-2.66.36-4.07v-1.5h-1.52c-10.25.06-18.96,6.87-21.91,16.24-2.48-4.47-7.23-7.49-12.66-7.49-.72,0-1.46.08-2.3.2l-1.5.24.24,1.48c1.24,7.69,7.51,13.38,15.14,14v.06h.08c.84,12,10.85,21.51,23.03,21.51s23.13-10.37,23.13-23.11c0-10.73-7.27-19.97-17.68-22.49"/><path class="cls-2" d="m74.95,50.28c0,7.97-6.49,14.46-14.48,14.46-6.37,0-11.92-4.09-13.82-10.15l-.4-1.3,2.84-.96.42,1.36c1.5,4.83,5.91,8.05,10.95,8.05,6.33,0,11.47-5.15,11.47-11.45,0-5.09-3.26-9.49-8.11-10.97l-1.26-.38,1.04-2.82,1.1.32c6.13,1.88,10.23,7.45,10.23,13.86"/><polygon class="cls-1" points="98.29 68.31 98.29 32.19 104.81 32.19 124.79 56.98 124.79 32.19 131.97 32.19 131.97 68.31 125.34 68.31 105.47 43.79 105.47 68.31 98.29 68.31"/><path class="cls-1" d="m155.59,53.02c-.35-2.85-2.69-5.03-5.93-5.03s-5.93,2.13-6.3,5.03h12.24Zm-19.15,2.5c.03-7.79,5.56-13.27,13.14-13.27,7.02,0,12.37,4.71,12.37,12.45,0,.93-.08,1.89-.24,2.9h-18.46c.51,3.01,3.57,5.11,6.81,5.11,2.53,0,4.71-1.17,6.36-3.59l4.84,3.62c-2.39,3.99-6.86,6.14-11.36,6.14-8.19,0-13.46-5.9-13.46-13.35"/><polygon class="cls-1" points="172.21 55.28 162.9 42.78 170.75 42.78 176.31 50.65 181.84 42.78 189.66 42.78 180.4 55.28 189.87 68.31 182.19 68.31 176.31 59.83 170.48 68.31 162.82 68.31 172.21 55.28"/><path class="cls-1" d="m207.91,61.9c-1.44.58-3.06.88-4.34.88-2.29,0-3.78-1.17-3.78-3.83v-10.51h7.5v-5.66h-7.66v-8.19h-6.62l-.03,25.35c0,6.01,3.78,8.91,9.39,8.91,2.07,0,4.6-.51,6.17-1.28l-.64-5.67Z"/><path class="cls-1" d="m211.52,50.25c0-10.56,7.98-18.59,18.54-18.59,6.25,0,12.02,2.98,15.83,8.49l-5.66,4.04c-2.82-4.26-6.49-5.88-10.16-5.88-6.57,0-11.17,4.95-11.17,11.94s4.79,11.94,11.36,11.94c6.01,0,9.39-3.54,10.21-7.37h-10.93v-6.2h18.19c.11.93.13,1.99.13,2.9,0,9.28-6.54,17.32-17.61,17.32s-18.73-8.03-18.73-18.59"/><path class="cls-1" d="m270.4,53.02c-.35-2.85-2.69-5.03-5.93-5.03s-5.93,2.13-6.3,5.03h12.23Zm-19.15,2.5c.03-7.79,5.56-13.27,13.14-13.27,7.02,0,12.37,4.71,12.37,12.45,0,.93-.08,1.89-.24,2.9h-18.46c.51,3.01,3.57,5.11,6.81,5.11,2.53,0,4.71-1.17,6.36-3.59l4.84,3.62c-2.39,3.99-6.86,6.14-11.36,6.14-8.19,0-13.46-5.9-13.46-13.35"/><path class="cls-1" d="m281.31,68.31v-25.54h6.49l.13,2.95c1.33-1.78,4.07-3.48,7.87-3.48,5.9,0,10.08,3.88,10.08,10.03v16.04h-6.81v-14.28c0-3.54-2.29-5.45-5.29-5.45s-5.66,1.92-5.66,5.45v14.28h-6.81Z"/><path d="m300.58,97.57l-.17,1.14h1.76l.07-.55-.63-.1c-.09-.01-.13-.09-.1-.22l.7-5-.03-.05h-1.88l-.08.56.67.09c.17.02.18.05.16.23l-.39,2.94c-.77.68-1.48,1.28-2.18,1.28-.47,0-.61-.2-.61-.66,0-.28.02-.5.06-.7l.52-3.7-.03-.05h-1.78l-.09.56.6.09c.17.02.18.05.16.23l-.44,3.1c-.03.21-.06.5-.06.67,0,1.03.5,1.39,1.45,1.39.82,0,1.71-.74,2.33-1.27m-7.46,1.1l.02.05h1.95l.08-.56-.68-.09c-.17-.02-.18-.05-.16-.23l1.11-7.81h-1.82l-.08.55.61.16c.1.02.14.12.12.24l-.9,6.37-.24,1.33Zm-3.35,0l.02.05h1.95l.08-.56-.68-.09c-.17-.02-.18-.05-.16-.23l.7-5.04h-1.81l-.08.55.61.16c.12.03.15.12.13.24l-.52,3.6-.24,1.33Zm1.39-7.16c.53,0,.85-.37.85-.85,0-.38-.23-.61-.65-.61-.53,0-.85.36-.85.85,0,.38.24.61.65.61m-4.01,2.64l-.35,2.48c-.54.59-1.3,1.33-1.99,1.33-.6,0-.99-.36-.99-1.39,0-1.2.44-3.03,1.88-3.03.59,0,1.15.32,1.45.62m-.41,3.53l-.14,1.04h1.68l.09-.56-.56-.08c-.17-.02-.18-.05-.16-.23l.51-3.63c.07-.48.18-.96.3-1.42h-.97l-.18.53c-.38-.33-.97-.65-1.64-.65-2.16,0-2.89,2.2-2.89,3.98,0,1.5.63,2.2,1.73,2.2.88,0,1.54-.53,2.2-1.19h.03Zm-6.35,1l.03.03h1.64l.08-.56-.62-.1c-.2-.03-.25-.05-.31-.18l-1.18-2.96.99-.96c.48-.46.78-.54,1.23-.53l.09-.69c-.18-.03-.36-.05-.51-.05-.53,0-.86.16-1.3.58l-2.35,2.25.77-5.49h-1.82l-.07.55.61.17c.12.03.14.1.12.23l-.96,6.86c-.02.17-.06.21-.21.23l-.58.08-.08.58h2.69l.08-.56-.73-.09c-.17-.02-.17-.05-.15-.23l.16-1.15,1.15-1.1.81,1.95.4,1.15Zm-8-.62c-.95,0-1.43-.58-1.43-1.66,0-1.95.88-2.88,2.1-2.88.9,0,1.38.51,1.38,1.56,0,2.02-.85,2.99-2.05,2.99m-.09.8c2.07,0,3.22-1.46,3.22-3.77,0-1.35-.62-2.41-2.34-2.41-2.13,0-3.27,1.59-3.27,3.77,0,1.44.74,2.41,2.4,2.41m-5.19-1.28l-.17,1.14h1.76l.07-.55-.63-.1c-.09-.01-.13-.09-.1-.22l.7-5-.03-.05h-1.88l-.08.56.67.09c.17.02.18.05.16.23l-.39,2.94c-.77.68-1.48,1.28-2.18,1.28-.47,0-.61-.2-.61-.66,0-.28.02-.5.06-.7l.52-3.7-.03-.05h-1.78l-.09.56.6.09c.17.02.18.05.16.23l-.44,3.1c-.03.21-.06.5-.06.67,0,1.03.5,1.39,1.45,1.39.82,0,1.71-.74,2.33-1.27m-9.62.56l-.08.58h3l.08-.56-1.03-.08c-.17-.01-.18-.05-.16-.23l.41-3.02c.63-.74,1.22-1.23,1.52-1.23.1,0,.12.02.12.12l.02.78.81.03.23-1.74c-.2-.06-.48-.1-.74-.1-.78,0-1.53.74-1.94,1.28l.15-1.16h-1.71l-.08.55.62.18c.09.02.13.12.1.24l-.56,4.07c-.02.16-.05.21-.2.23l-.58.07Zm-.8.36l-.17-.73c-.32.13-.71.24-1.07.24-.53,0-.7-.2-.7-.61,0-.13.01-.25.03-.41l.46-3.4h1.75l.1-.8h-1.65c-.09,0-.09-.03-.08-.12l.21-1.41h-.68c-.29,1.15-.67,1.51-1.5,1.64l-.1.68h.83c.08,0,.08.05.07.12l-.5,3.6c-.02.13-.02.27-.02.37,0,.8.44,1.19,1.41,1.19.54,0,1.19-.16,1.61-.36m-7.99-2.92c.23-1.11.93-2.06,1.97-2.06.53,0,.76.24.76.6,0,1.07-1.97,1.37-2.73,1.46m3.2,2.79l-.2-.78c-.58.27-1.08.43-1.65.43-1.15,0-1.43-.62-1.43-1.65,1.28-.14,3.79-.56,3.79-2.31,0-.77-.44-1.38-1.63-1.38-1.9,0-3.23,1.72-3.23,3.8,0,1.38.59,2.37,2.26,2.37.74,0,1.46-.17,2.07-.48m-7.42-4.67l-1.06,7.46h1.03l1.07-7.57h1.95l.12-.8h-1.86c-.09,0-.09-.03-.08-.12l.12-.82c.1-.75.38-1.14,1.06-1.14.56,0,1.04.31,1.2.43l.45-.7c-.28-.23-.91-.55-1.71-.55-1.12,0-1.84.55-2.02,1.86l-.14,1.05h-2.71c-.09,0-.09-.03-.08-.12l.1-.65c.12-.75.38-1.14,1.06-1.14.58,0,1.04.31,1.2.43l.45-.69c-.28-.23-.91-.56-1.73-.56-1.1,0-1.8.54-1.99,1.86l-.13.88h-.9l-.12.8h.81c.08,0,.09.05.08.12l-1.06,7.46h1.03l1.08-7.57h2.7c.08,0,.09.05.08.12m-7.69,3.87l-.17,1.14h1.76l.07-.55-.63-.1c-.09-.01-.13-.09-.1-.22l.7-5-.03-.05h-1.88l-.08.56.67.09c.17.02.18.05.16.23l-.39,2.94c-.77.68-1.48,1.28-2.18,1.28-.47,0-.61-.2-.61-.66,0-.28.02-.5.06-.7l.52-3.7-.03-.05h-1.78l-.09.56.6.09c.17.02.18.05.16.23l-.44,3.1c-.03.21-.06.5-.06.67,0,1.03.5,1.39,1.45,1.39.82,0,1.71-.74,2.33-1.27m-9.53-.32l.35-2.37c.46-.45,1.36-1.27,2.06-1.27.54,0,.89.37.89,1.45,0,1.24-.48,2.95-1.86,2.95-.56,0-1.1-.37-1.44-.76m-1.35,1.46h1.01l.14-.61h.03c.5.48,1.03.73,1.73.73,2.11,0,2.8-2.27,2.8-3.93s-.68-2.22-1.61-2.22c-.81,0-1.58.55-2.28,1.19l.54-3.85h-1.8l-.08.55.62.17c.12.03.14.12.12.24l-.86,6.09c-.08.55-.24,1.22-.36,1.65m-4.1-7.7c0-.32-.21-.53-.56-.53-.46,0-.74.32-.74.73,0,.32.21.53.56.53.46,0,.74-.31.74-.73m-2.33,0c0-.32-.21-.53-.56-.53-.46,0-.74.32-.74.73,0,.32.21.53.56.53.46,0,.74-.31.74-.73m1.43,3.14l-.35,2.48c-.54.59-1.3,1.33-1.99,1.33-.6,0-.99-.36-.99-1.39,0-1.2.44-3.03,1.88-3.03.59,0,1.15.32,1.45.62m-.41,3.53l-.14,1.04h1.68l.09-.56-.56-.08c-.17-.02-.18-.05-.16-.23l.51-3.63c.07-.48.18-.96.3-1.42h-.97l-.18.53c-.38-.33-.97-.65-1.64-.65-2.16,0-2.89,2.2-2.89,3.98,0,1.5.63,2.2,1.73,2.2.88,0,1.54-.53,2.2-1.19h.03Zm-9.44-4.02l1.1,5.06h1.22l2.95-5.76-.08-.16h-1.86l-.07.55.74.13-2.1,4.24-.7-3.68-.18-1.18-.06-.07h-1.56l-.08.56.47.1c.13.02.17.06.21.2m-1.92-2.64c0-.32-.21-.53-.56-.53-.46,0-.74.32-.74.73,0,.32.21.53.56.53.46,0,.74-.31.74-.73m-2.33,0c0-.32-.21-.53-.56-.53-.46,0-.74.32-.74.73,0,.32.21.53.56.53.46,0,.74-.31.74-.73m1.43,3.14l-.35,2.48c-.54.59-1.3,1.33-1.99,1.33-.6,0-.99-.36-.99-1.39,0-1.2.44-3.03,1.88-3.03.59,0,1.15.32,1.45.62m-.41,3.53l-.14,1.04h1.68l.09-.56-.56-.08c-.17-.02-.18-.05-.16-.23l.51-3.63c.07-.48.18-.96.3-1.42h-.97l-.18.53c-.38-.33-.97-.65-1.64-.65-2.16,0-2.89,2.2-2.89,3.98,0,1.5.63,2.2,1.73,2.2.88,0,1.54-.53,2.2-1.19h.03Zm-4.73.82l-.17-.73c-.32.13-.71.24-1.07.24-.53,0-.7-.2-.7-.61,0-.13.01-.25.03-.41l.46-3.4h1.75l.1-.8h-1.65c-.09,0-.09-.03-.08-.12l.21-1.41h-.68c-.29,1.15-.67,1.51-1.5,1.64l-.1.68h.83c.08,0,.08.05.07.12l-.5,3.6c-.02.13-.02.27-.02.37,0,.8.44,1.19,1.41,1.19.54,0,1.19-.16,1.61-.36m-6.55.2l.02.02h1.86l.08-.56-.65-.09c-.16-.02-.17-.05-.15-.23l.44-3.09c.03-.22.06-.5.06-.68,0-.91-.43-1.38-1.36-1.38s-1.72.66-2.43,1.26l.16-1.14h-1.74l-.08.55.61.18c.1.03.13.12.1.24l-.55,4.06c-.02.17-.06.21-.22.23l-.55.08-.08.58h2.69l.08-.56-.71-.09c-.17-.02-.18-.05-.16-.23l.4-2.93c.88-.78,1.54-1.31,2.21-1.31.47,0,.59.29.59.68,0,.22-.02.46-.06.71l-.33,2.32-.22,1.39Zm-8.58-3.11c.23-1.11.93-2.06,1.97-2.06.53,0,.76.24.76.6,0,1.07-1.97,1.37-2.73,1.46m3.2,2.79l-.2-.78c-.58.27-1.08.43-1.65.43-1.15,0-1.43-.62-1.43-1.65,1.28-.14,3.79-.56,3.79-2.31,0-.77-.44-1.38-1.63-1.38-1.9,0-3.23,1.72-3.23,3.8,0,1.38.59,2.37,2.26,2.37.74,0,1.46-.17,2.07-.48m-7.35.31l.02.03h1.88l.08-.56-.63-.09c-.17-.02-.18-.05-.16-.23l.44-3.09c.03-.23.06-.52.06-.74-.01-.84-.44-1.33-1.33-1.33s-1.71.65-2.41,1.23l.55-3.9h-1.79l-.08.55.62.17c.09.02.13.09.1.24l-.96,6.85c-.02.18-.05.21-.22.23l-.56.08-.08.58h2.69l.08-.56-.71-.09c-.17-.02-.18-.05-.16-.23l.4-2.93c.76-.67,1.6-1.33,2.25-1.33.46,0,.54.4.54.73,0,.22-.02.47-.06.68l-.36,2.56-.21,1.14Zm-5.51-7.67c0-.32-.21-.53-.56-.53-.46,0-.74.32-.74.73,0,.32.21.53.56.53.46,0,.74-.31.74-.73m-2.33,0c0-.32-.21-.53-.56-.53-.46,0-.74.32-.74.73,0,.32.21.53.56.53.46,0,.74-.31.74-.73m1.43,3.14l-.35,2.48c-.54.59-1.3,1.33-1.99,1.33-.6,0-.99-.36-.99-1.39,0-1.2.44-3.03,1.88-3.03.59,0,1.15.32,1.45.62m-.41,3.53l-.14,1.04h1.68l.09-.56-.56-.08c-.17-.02-.18-.05-.16-.23l.51-3.63c.07-.48.18-.96.3-1.42h-.97l-.18.53c-.38-.33-.97-.65-1.64-.65-2.16,0-2.89,2.2-2.89,3.98,0,1.5.63,2.2,1.73,2.2.88,0,1.54-.53,2.2-1.19h.03Zm-9.44-4.02l1.1,5.06h1.22l2.95-5.76-.08-.16h-1.86l-.07.55.74.13-2.1,4.24-.7-3.68-.18-1.18-.06-.07h-1.56l-.08.56.47.1c.13.02.17.06.21.2m-4.56-2.64c0-.32-.21-.53-.56-.53-.46,0-.74.32-.74.73,0,.32.21.53.56.53.46,0,.74-.31.74-.73m-2.33,0c0-.32-.21-.53-.56-.53-.46,0-.74.32-.74.73,0,.32.21.53.56.53.46,0,.74-.31.74-.73m1.43,3.14l-.35,2.48c-.54.59-1.3,1.33-1.99,1.33-.6,0-.99-.36-.99-1.39,0-1.2.44-3.03,1.88-3.03.59,0,1.15.32,1.45.62m-.41,3.53l-.14,1.04h1.68l.09-.56-.56-.08c-.17-.02-.18-.05-.16-.23l.51-3.63c.07-.48.18-.96.3-1.42h-.97l-.18.53c-.38-.33-.97-.65-1.64-.65-2.16,0-2.89,2.2-2.89,3.98,0,1.5.63,2.2,1.73,2.2.88,0,1.54-.53,2.2-1.19h.03Zm-7.05.99l.02.05h1.95l.08-.56-.68-.09c-.17-.02-.18-.05-.16-.23l.7-5.04h-1.81l-.08.55.61.16c.12.03.15.12.13.24l-.52,3.6-.24,1.33Zm1.39-7.16c.53,0,.85-.37.85-.85,0-.38-.23-.61-.65-.61-.53,0-.85.36-.85.85,0,.38.24.61.65.61m-4.16,7.17l.03.03h1.64l.08-.56-.62-.1c-.2-.03-.25-.05-.31-.18l-1.18-2.96.99-.96c.48-.46.78-.54,1.23-.53l.09-.69c-.18-.03-.36-.05-.51-.05-.53,0-.86.16-1.3.58l-2.35,2.25.77-5.49h-1.82l-.07.55.61.17c.12.03.14.1.12.23l-.96,6.86c-.02.17-.06.21-.21.23l-.58.08-.08.58h2.69l.08-.56-.73-.09c-.17-.02-.17-.05-.15-.23l.16-1.15,1.15-1.1.81,1.95.4,1.15Zm-6.7,0l.03.03h1.64l.08-.56-.62-.1c-.2-.03-.25-.05-.31-.18l-1.18-2.96.99-.96c.48-.46.78-.54,1.23-.53l.09-.69c-.18-.03-.36-.05-.51-.05-.53,0-.86.16-1.3.58l-2.35,2.25.77-5.49h-1.82l-.07.55.61.17c.12.03.14.1.12.23l-.96,6.86c-.02.17-.06.21-.21.23l-.58.08-.08.58h2.69l.08-.56-.73-.09c-.17-.02-.17-.05-.15-.23l.16-1.15,1.15-1.1.81,1.95.4,1.15Zm-7.15-.01l.02.05h1.95l.08-.56-.68-.09c-.17-.02-.18-.05-.16-.23l.7-5.04h-1.81l-.08.55.61.16c.12.03.15.12.13.24l-.52,3.6-.24,1.33Zm1.39-7.16c.53,0,.85-.37.85-.85,0-.38-.23-.61-.65-.61-.53,0-.85.36-.85.85,0,.38.24.61.65.61m-7.38,2.14l1.1,5.06h1.22l2.95-5.76-.08-.16h-1.86l-.07.55.74.13-2.1,4.24-.7-3.68-.18-1.18-.06-.07h-1.56l-.08.56.47.1c.13.02.17.06.21.2m-1.92-2.64c0-.32-.21-.53-.56-.53-.46,0-.74.32-.74.73,0,.32.21.53.56.53.46,0,.74-.31.74-.73m-2.33,0c0-.32-.21-.53-.56-.53-.46,0-.74.32-.74.73,0,.32.21.53.56.53.46,0,.74-.31.74-.73m1.43,3.14l-.35,2.48c-.54.59-1.3,1.33-1.99,1.33-.6,0-.99-.36-.99-1.39,0-1.2.44-3.03,1.88-3.03.59,0,1.15.32,1.45.62m-.41,3.53l-.14,1.04h1.68l.09-.56-.56-.08c-.17-.02-.18-.05-.16-.23l.51-3.63c.07-.48.18-.96.3-1.42h-.97l-.18.53c-.38-.33-.97-.65-1.64-.65-2.16,0-2.89,2.2-2.89,3.98,0,1.5.63,2.2,1.73,2.2.88,0,1.54-.53,2.2-1.19h.03Zm-6.98,1l.02.03h1.88l.08-.56-.63-.09c-.17-.02-.18-.05-.16-.23l.44-3.09c.03-.23.06-.52.06-.74-.01-.84-.44-1.33-1.33-1.33s-1.71.65-2.41,1.23l.55-3.9h-1.79l-.08.55.62.17c.09.02.13.09.1.24l-.96,6.85c-.02.18-.05.21-.22.23l-.56.08-.08.58h2.69l.08-.56-.71-.09c-.17-.02-.18-.05-.16-.23l.4-2.93c.76-.67,1.6-1.33,2.25-1.33.46,0,.54.4.54.73,0,.22-.02.47-.06.68l-.36,2.56-.21,1.14Zm-9.65.01l.02.02h1.86l.08-.56-.65-.09c-.16-.02-.17-.05-.15-.23l.44-3.09c.03-.22.06-.5.06-.68,0-.91-.43-1.38-1.36-1.38s-1.72.66-2.43,1.26l.16-1.14h-1.74l-.08.55.61.18c.1.03.13.12.1.24l-.55,4.06c-.02.17-.06.21-.22.23l-.55.08-.08.58h2.69l.08-.56-.71-.09c-.17-.02-.18-.05-.16-.23l.4-2.93c.88-.78,1.54-1.31,2.21-1.31.47,0,.59.29.59.68,0,.22-.02.46-.06.71l-.33,2.32-.22,1.39Zm-8.58-3.11c.23-1.11.93-2.06,1.97-2.06.53,0,.76.24.76.6,0,1.07-1.97,1.37-2.73,1.46m3.2,2.79l-.2-.78c-.58.27-1.08.43-1.65.43-1.15,0-1.43-.62-1.43-1.65,1.28-.14,3.79-.56,3.79-2.31,0-.77-.44-1.38-1.63-1.38-1.9,0-3.23,1.72-3.23,3.8,0,1.38.59,2.37,2.26,2.37.74,0,1.46-.17,2.07-.48m-6.67-4.22l-.35,2.47c-.55.6-1.29,1.34-2.02,1.34-.58,0-.98-.35-.98-1.35,0-1.23.43-3.08,1.89-3.08.58,0,1.15.31,1.45.62m-.43,3.54l-.14,1.03h1.69l.08-.56-.56-.08c-.17-.02-.18-.05-.16-.23l1.1-7.83h-1.8l-.08.55.62.16c.1.02.13.1.12.23l-.31,2.32c-.38-.31-.96-.6-1.65-.6-2.18,0-2.87,2.31-2.87,3.99,0,1.5.66,2.19,1.75,2.19.89,0,1.57-.59,2.18-1.19l.03.02Zm-6.74-.12l-.17,1.14h1.76l.07-.55-.63-.1c-.09-.01-.13-.09-.1-.22l.7-5-.03-.05h-1.88l-.08.56.67.09c.17.02.18.05.16.23l-.39,2.94c-.77.68-1.48,1.28-2.18,1.28-.47,0-.61-.2-.61-.66,0-.28.02-.5.06-.7l.52-3.7-.03-.05h-1.78l-.09.56.6.09c.17.02.18.05.16.23l-.44,3.1c-.03.21-.06.5-.06.67,0,1.03.5,1.39,1.45,1.39.82,0,1.71-.74,2.33-1.27m-7.11,0l-.17,1.14h1.76l.07-.55-.63-.1c-.09-.01-.13-.09-.1-.22l.7-5-.03-.05h-1.88l-.08.56.67.09c.17.02.18.05.16.23l-.39,2.94c-.77.68-1.48,1.28-2.18,1.28-.47,0-.61-.2-.61-.66,0-.28.02-.5.06-.7l.52-3.7-.03-.05h-1.78l-.09.56.6.09c.17.02.18.05.16.23l-.44,3.1c-.03.21-.06.5-.06.67,0,1.03.5,1.39,1.45,1.39.82,0,1.71-.74,2.33-1.27m-5.98-3.86l.03.71.73.05.21-1.49c-.23-.1-.91-.31-1.76-.31-1.35,0-2.35.56-2.35,1.81,0,1.04.81,1.36,1.56,1.6.74.24,1.18.44,1.18,1.06s-.51.99-1.27.99c-.55,0-.86-.08-1.05-.16-.08-.03-.12-.08-.12-.17l-.03-.75-.71-.05-.22,1.46c.2.13,1.01.38,2.07.38,1.31,0,2.32-.66,2.32-1.88,0-1.1-.9-1.43-1.64-1.68-.66-.23-1.11-.46-1.11-.99,0-.62.58-.89,1.24-.89.36,0,.59.02.76.08.13.05.15.09.16.22m-6.64,4.96l.02.05h1.95l.08-.56-.68-.09c-.17-.02-.18-.05-.16-.23l.7-5.04h-1.81l-.08.55.61.16c.12.03.15.12.13.24l-.52,3.6-.24,1.33Zm1.39-7.16c.53,0,.85-.37.85-.85,0-.38-.23-.61-.65-.61-.53,0-.85.36-.85.85,0,.38.24.61.65.61m-4.01,2.64l-.35,2.48c-.54.59-1.3,1.33-1.99,1.33-.6,0-.99-.36-.99-1.39,0-1.2.44-3.03,1.88-3.03.59,0,1.15.32,1.45.62m-.41,3.53l-.14,1.04h1.68l.09-.56-.56-.08c-.17-.02-.18-.05-.16-.23l.51-3.63c.07-.48.18-.96.3-1.42h-.97l-.18.53c-.38-.33-.97-.65-1.64-.65-2.16,0-2.89,2.2-2.89,3.98,0,1.5.63,2.2,1.73,2.2.88,0,1.54-.53,2.2-1.19h.03Zm-9.44-4.02l1.1,5.06h1.22l2.95-5.76-.08-.16h-1.86l-.07.55.74.13-2.1,4.24-.7-3.68-.18-1.18-.06-.07h-1.56l-.08.56.47.1c.13.02.17.06.21.2m-5.02,1.92c.23-1.11.93-2.06,1.97-2.06.53,0,.76.24.76.6,0,1.07-1.97,1.37-2.73,1.46m3.2,2.79l-.2-.78c-.58.27-1.08.43-1.65.43-1.15,0-1.43-.62-1.43-1.65,1.28-.14,3.79-.56,3.79-2.31,0-.77-.44-1.38-1.63-1.38-1.9,0-3.23,1.72-3.23,3.8,0,1.38.59,2.37,2.26,2.37.74,0,1.46-.17,2.07-.48m-7.46.3l.02.05h1.95l.08-.56-.68-.09c-.17-.02-.18-.05-.16-.23l1.11-7.81h-1.82l-.08.55.61.16c.1.02.14.12.12.24l-.9,6.37-.24,1.33Zm-3.04-1.1l-.17,1.14h1.76l.07-.55-.63-.1c-.09-.01-.13-.09-.1-.22l.7-5-.03-.05h-1.88l-.08.56.67.09c.17.02.18.05.16.23l-.39,2.94c-.77.68-1.48,1.28-2.18,1.28-.47,0-.61-.2-.61-.66,0-.28.02-.5.06-.7l.52-3.7-.03-.05h-1.78l-.09.56.6.09c.17.02.18.05.16.23l-.44,3.1c-.03.21-.06.5-.06.67,0,1.03.5,1.39,1.45,1.39.82,0,1.71-.74,2.33-1.27m-9.77.55l-.08.59h3.8l.08-.59-1.26-.09c-.17-.01-.17-.06-.15-.22l.93-6.63h1.79c.13,0,.16.01.16.13l.05,1h.73l.27-1.95h-6.78l-.27,1.95h.73l.31-1c.03-.12.07-.13.2-.13h1.78l-.92,6.63c-.02.17-.06.22-.21.23l-1.15.08Z"/></svg>