<?xml version="1.0" encoding="UTF-8"?><svg id="Layer_1" xmlns="http://www.w3.org/2000/svg" viewBox="0 0 340.16 104.88"><defs><style>.cls-1{fill:#063;}.cls-2{fill:#50b163;}</style></defs><path class="cls-2" d="m58.81,30.23c-.16,2.28-.7,4.51-1.64,6.63-2,4.55-5.61,8.19-10.13,10.23-2.1.96-4.33,1.52-6.61,1.72.7-9.85,8.57-17.78,18.38-18.58m-33.26,8.69c5.95-.18,10.79,4.23,11.59,9.87-5.53-.64-10.09-4.53-11.59-9.87m40.37-11.13l-1.2-.28-.28,3.02.78.18c9.05,2.18,15.38,10.23,15.38,19.57,0,11.09-9.03,20.11-20.13,20.11s-19.24-8.21-20.03-18.58c1.1-.08,2.2-.24,3.26-.48,1.56-.32,3.08-.82,4.57-1.48.38-.18.76-.36,1.12-.54l.04-.02c4.67-2.44,8.35-6.39,10.47-11.21l.06-.16.88-2.32c.28-.94.52-1.88.66-2.86.24-1.32.36-2.66.36-4.07v-1.5h-1.52c-10.25.06-18.96,6.87-21.91,16.24-2.48-4.47-7.23-7.49-12.66-7.49-.72,0-1.46.08-2.3.2l-1.5.24.24,1.48c1.24,7.69,7.51,13.38,15.14,14v.06h.08c.84,12,10.85,21.51,23.03,21.51s23.13-10.37,23.13-23.11c0-10.73-7.27-19.97-17.68-22.49"/><path class="cls-2" d="m74.95,50.28c0,7.97-6.49,14.46-14.48,14.46-6.37,0-11.92-4.09-13.82-10.15l-.4-1.3,2.84-.96.42,1.36c1.5,4.83,5.91,8.05,10.95,8.05,6.33,0,11.47-5.15,11.47-11.45,0-5.09-3.26-9.49-8.11-10.97l-1.26-.38,1.04-2.82,1.1.32c6.13,1.88,10.23,7.45,10.23,13.86"/><polygon class="cls-1" points="98.29 68.31 98.29 32.19 104.81 32.19 124.79 56.98 124.79 32.19 131.97 32.19 131.97 68.31 125.34 68.31 105.47 43.79 105.47 68.31 98.29 68.31"/><path class="cls-1" d="m155.59,53.02c-.35-2.85-2.69-5.03-5.93-5.03s-5.93,2.13-6.3,5.03h12.24Zm-19.15,2.5c.03-7.79,5.56-13.27,13.14-13.27,7.02,0,12.37,4.71,12.37,12.45,0,.93-.08,1.89-.24,2.9h-18.46c.51,3.01,3.57,5.11,6.81,5.11,2.53,0,4.71-1.17,6.36-3.59l4.84,3.62c-2.39,3.99-6.86,6.14-11.36,6.14-8.19,0-13.46-5.9-13.46-13.35"/><polygon class="cls-1" points="172.21 55.28 162.9 42.78 170.75 42.78 176.31 50.65 181.84 42.78 189.66 42.78 180.4 55.28 189.87 68.31 182.19 68.31 176.31 59.83 170.48 68.31 162.82 68.31 172.21 55.28"/><path class="cls-1" d="m207.91,61.9c-1.44.58-3.06.88-4.34.88-2.29,0-3.78-1.17-3.78-3.83v-10.51h7.5v-5.66h-7.66v-8.19h-6.62l-.03,25.35c0,6.01,3.78,8.91,9.39,8.91,2.07,0,4.6-.51,6.17-1.28l-.64-5.67Z"/><path class="cls-1" d="m211.52,50.25c0-10.56,7.98-18.59,18.54-18.59,6.25,0,12.02,2.98,15.83,8.49l-5.66,4.04c-2.82-4.26-6.49-5.88-10.16-5.88-6.57,0-11.17,4.95-11.17,11.94s4.79,11.94,11.36,11.94c6.01,0,9.39-3.54,10.21-7.37h-10.93v-6.2h18.19c.11.93.13,1.99.13,2.9,0,9.28-6.54,17.32-17.61,17.32s-18.73-8.03-18.73-18.59"/><path class="cls-1" d="m270.4,53.02c-.35-2.85-2.69-5.03-5.93-5.03s-5.93,2.13-6.3,5.03h12.23Zm-19.15,2.5c.03-7.79,5.56-13.27,13.14-13.27,7.02,0,12.37,4.71,12.37,12.45,0,.93-.08,1.89-.24,2.9h-18.46c.51,3.01,3.57,5.11,6.81,5.11,2.53,0,4.71-1.17,6.36-3.59l4.84,3.62c-2.39,3.99-6.86,6.14-11.36,6.14-8.19,0-13.46-5.9-13.46-13.35"/><path class="cls-1" d="m281.31,68.31v-25.54h6.49l.13,2.95c1.33-1.78,4.07-3.48,7.87-3.48,5.9,0,10.08,3.88,10.08,10.03v16.04h-6.81v-14.28c0-3.54-2.29-5.45-5.29-5.45s-5.66,1.92-5.66,5.45v14.28h-6.81Z"/></svg>