<?xml version="1.0" encoding="UTF-8"?><svg id="Layer_1" xmlns="http://www.w3.org/2000/svg" viewBox="0 0 240.94 188.27"><defs><style>.cls-1{fill:#50b163;}</style></defs><path class="cls-1" d="m135.88,33.22c-.49,6.98-2.14,13.79-5.02,20.28-6.13,13.91-17.16,25.06-31,31.31-6.43,2.94-13.23,4.66-20.22,5.27,2.14-30.15,26.22-54.41,56.24-56.86m-101.77,26.59c18.2-.55,33.02,12.93,35.48,30.21-16.91-1.96-30.88-13.85-35.48-30.21m123.52-34.07l-3.68-.86-.86,9.25,2.39.55c27.69,6.68,47.06,31.31,47.06,59.86,0,33.94-27.63,61.51-61.58,61.51s-58.88-25.12-61.27-56.86c3.37-.25,6.74-.74,9.99-1.47,4.78-.98,9.44-2.51,13.97-4.53,1.16-.55,2.33-1.1,3.43-1.65l.12-.06c14.28-7.48,25.55-19.55,32.04-34.31l.18-.49,2.7-7.11c.86-2.88,1.59-5.76,2.02-8.76.73-4.04,1.1-8.15,1.1-12.44v-4.59h-4.66c-31.37.18-58.02,21.01-67.03,49.69-7.6-13.66-22.12-22.92-38.72-22.92-2.2,0-4.47.25-7.04.61l-4.6.74.74,4.53c3.8,23.53,22.98,40.93,46.32,42.83v.18h.25c2.57,36.7,33.21,65.8,70.46,65.8s70.77-31.74,70.77-70.71c0-32.84-22.24-61.09-54.1-68.81"/><path class="cls-1" d="m185.26,94.55c0,24.39-19.85,44.24-44.3,44.24-19.48,0-36.46-12.5-42.28-31.06l-1.22-3.98,8.7-2.94,1.29,4.17c4.6,14.77,18.08,24.63,33.52,24.63,19.36,0,35.11-15.75,35.11-35.05,0-15.56-9.99-29.04-24.81-33.58l-3.86-1.16,3.19-8.64,3.37.98c18.75,5.76,31.31,22.79,31.31,42.4"/></svg>